# xmcd
#
# Track frame offsets: 
#        150
#        30175
#        51842
#        77150
#        94714
#        114814
#        143603
#        164708
#        191010
#        214982
#        246075
#        281823
#        305192
#        330328
#        352360
#
# Disc length: 4987 seconds
#
# Revision: 0
# Processed by: cddbd v1.5.2PL0 Copyright (c) Steve Scherf et al.
# Submitted via: ExactAudioCopy v1.2
#
DISCID=dd13790f
DTITLE=Skipper Shabalala - Salute Africa
DYEAR=2018
DGENRE=World
TTITLE0=Buya (Original Mix)
TTITLE1=Ngiyasha (Original Mix)
TTITLE2=Mina Nawe (Original Mix)
TTITLE3=Myekeleni (Original Mix)
TTITLE4=Shut up (Original Mix)
TTITLE5=Jabula Nathi (Original Mix)
TTITLE6=Respect (Original Mix)
TTITLE7=Ngim 'Thandile (Original Mix)
TTITLE8=Afro Celebration (Original Mix)
TTITLE9=Salute Africa (Original Mix)
TTITLE10=Phambili (Original Mix)
TTITLE11=Jabula Nathi (DJ Choc Remix)
TTITLE12=Mina Nawe Instrumental (Original Mix)
TTITLE13=Phambili Taxi Reprise (Original Mix)
TTITLE14=Ngiyasha Instrumental (Original Mix)
EXTD=
EXTT0=
EXTT1=
EXTT2=
EXTT3=
EXTT4=
EXTT5=
EXTT6=
EXTT7=
EXTT8=
EXTT9=
EXTT10=
EXTT11=
EXTT12=
EXTT13=
EXTT14=
PLAYORDER=
